<svg width="20" height="21" viewBox="0 0 20 21" fill="none" xmlns="http://www.w3.org/2000/svg">
<path d="M7.805 9.45245C8.58695 10.8262 9.7246 11.9638 11.0983 12.7458L11.835 11.7141C11.9535 11.5482 12.1286 11.4315 12.3273 11.3861C12.526 11.3406 12.7345 11.3696 12.9133 11.4674C14.0919 12.1116 15.3935 12.4989 16.7325 12.6041C16.9415 12.6207 17.1365 12.7154 17.2788 12.8694C17.421 13.0234 17.5 13.2253 17.5 13.4349V17.1533C17.5 17.3596 17.4235 17.5586 17.2853 17.7118C17.1471 17.865 16.9569 17.9614 16.7517 17.9824C16.31 18.0283 15.865 18.0508 15.4167 18.0508C8.28333 18.0508 2.5 12.2674 2.5 5.13411C2.5 4.68578 2.5225 4.24078 2.56833 3.79911C2.58938 3.59386 2.68582 3.40372 2.83899 3.26548C2.99216 3.12724 3.19117 3.05074 3.3975 3.05078H7.11583C7.32547 3.05075 7.52741 3.12974 7.6814 3.27199C7.83539 3.41424 7.93011 3.6093 7.94667 3.81828C8.05185 5.15727 8.43923 6.45885 9.08333 7.63745C9.18122 7.81625 9.21018 8.02473 9.16472 8.22344C9.11927 8.42216 9.00255 8.59732 8.83667 8.71578L7.805 9.45245V9.45245ZM5.70333 8.90495L7.28667 7.77411C6.83732 6.80419 6.52946 5.77482 6.3725 4.71745H4.175C4.17 4.85578 4.1675 4.99495 4.1675 5.13411C4.16667 11.3474 9.20333 16.3841 15.4167 16.3841C15.5558 16.3841 15.695 16.3816 15.8333 16.3758V14.1783C14.776 14.0213 13.7466 13.7135 12.7767 13.2641L11.6458 14.8474C11.1906 14.6705 10.7483 14.4617 10.3225 14.2224L10.2742 14.1949C8.63965 13.2647 7.28607 11.9111 6.35583 10.2766L6.32833 10.2283C6.08909 9.80244 5.88024 9.36023 5.70333 8.90495V8.90495Z" fill="white"/>
</svg>
