<svg width="20" height="21" viewBox="0 0 20 21" fill="none" xmlns="http://www.w3.org/2000/svg">
<path d="M2.50033 3.05078H17.5003C17.7213 3.05078 17.9333 3.13858 18.0896 3.29486C18.2459 3.45114 18.3337 3.6631 18.3337 3.88411V17.2174C18.3337 17.4385 18.2459 17.6504 18.0896 17.8067C17.9333 17.963 17.7213 18.0508 17.5003 18.0508H2.50033C2.27931 18.0508 2.06735 17.963 1.91107 17.8067C1.75479 17.6504 1.66699 17.4385 1.66699 17.2174V3.88411C1.66699 3.6631 1.75479 3.45114 1.91107 3.29486C2.06735 3.13858 2.27931 3.05078 2.50033 3.05078V3.05078ZM16.667 6.58245L10.0603 12.4991L3.33366 6.56411V16.3841H16.667V6.58245ZM3.75949 4.71745L10.0512 10.2691L16.252 4.71745H3.75949Z" fill="#F8F9FF"/>
</svg>
