<svg width="22" height="22" viewBox="0 0 22 22" fill="none" xmlns="http://www.w3.org/2000/svg">
<path d="M15.0145 20.8542H2.96952C2.09869 20.8542 1.29203 20.4509 0.76953 19.745C0.237864 19.03 0.0820384 18.1316 0.347872 17.2791L4.20703 4.87662C4.55536 3.72162 5.61871 2.93329 6.82871 2.93329H18.1037C19.2129 2.93329 20.212 3.59337 20.6337 4.62004C20.8629 5.1517 20.9087 5.75672 20.7712 6.35255L17.682 18.755C17.3887 19.9925 16.2887 20.8542 15.0145 20.8542ZM6.83786 4.31746C6.24203 4.31746 5.7012 4.71168 5.52703 5.28918L1.66787 17.6917C1.53954 18.1225 1.61286 18.5717 1.88786 18.9384C2.14453 19.2867 2.54787 19.4883 2.9787 19.4883H15.0237C15.6562 19.4883 16.2062 19.0575 16.3529 18.4433L19.442 6.03163C19.5154 5.72913 19.497 5.42667 19.3779 5.16084C19.1579 4.63834 18.672 4.30829 18.1129 4.30829H6.83786V4.31746Z" fill="#676D74"/>
<path d="M19.0477 20.8541H14.666C14.2902 20.8541 13.9785 20.5425 13.9785 20.1666C13.9785 19.7908 14.2902 19.4791 14.666 19.4791H19.0477C19.4235 19.4791 19.7719 19.3233 20.0285 19.0483C20.2852 18.7733 20.4135 18.4067 20.386 18.0308L19.4785 5.54584C19.451 5.17001 19.7352 4.83997 20.111 4.81247C20.4869 4.79413 20.8168 5.06908 20.8443 5.44491L21.7519 17.93C21.8069 18.6817 21.541 19.4333 21.0277 19.9833C20.5235 20.5425 19.7993 20.8541 19.0477 20.8541Z" fill="#676D74"/>
<path d="M8.87296 6.53579C8.81796 6.53579 8.76296 6.52661 8.70796 6.51744C8.3413 6.42577 8.11214 6.05907 8.20381 5.68324L9.15712 1.72329C9.24879 1.35662 9.61546 1.12741 9.99129 1.21908C10.358 1.31074 10.5871 1.67744 10.4955 2.05328L9.54213 6.01334C9.4688 6.32501 9.18462 6.53579 8.87296 6.53579Z" fill="#676D74"/>
<path d="M15.0158 6.54499C14.97 6.54499 14.915 6.54498 14.8691 6.52664C14.5025 6.44414 14.2641 6.07746 14.3375 5.7108L15.1991 1.73249C15.2816 1.35666 15.6483 1.12753 16.015 1.20087C16.3816 1.2742 16.62 1.64994 16.5466 2.0166L15.6849 5.99502C15.6208 6.32502 15.3366 6.54499 15.0158 6.54499Z" fill="#676D74"/>
<path d="M14.3919 11.6875H7.05859C6.68276 11.6875 6.37109 11.3758 6.37109 11C6.37109 10.6242 6.68276 10.3125 7.05859 10.3125H14.3919C14.7678 10.3125 15.0794 10.6242 15.0794 11C15.0794 11.3758 14.7678 11.6875 14.3919 11.6875Z" fill="#676D74"/>
<path d="M13.4759 15.3542H6.14258C5.76674 15.3542 5.45508 15.0425 5.45508 14.6667C5.45508 14.2908 5.76674 13.9792 6.14258 13.9792H13.4759C13.8517 13.9792 14.1634 14.2908 14.1634 14.6667C14.1634 15.0425 13.8517 15.3542 13.4759 15.3542Z" fill="#676D74"/>
</svg>
