<svg width="22" height="22" viewBox="0 0 22 22" fill="none" xmlns="http://www.w3.org/2000/svg">
<path d="M19.0943 7.3425L13.0901 2.53916C11.9168 1.60416 10.0835 1.595 8.91929 2.53L2.91513 7.3425C2.05346 8.03 1.53096 9.405 1.7143 10.4867L2.8693 17.3983C3.13513 18.9475 4.5743 20.1667 6.1418 20.1667H15.8585C17.4076 20.1667 18.8743 18.92 19.1401 17.3892L20.2951 10.4775C20.4601 9.405 19.9376 8.03 19.0943 7.3425ZM11.6876 16.5C11.6876 16.8758 11.376 17.1875 11.0001 17.1875C10.6243 17.1875 10.3126 16.8758 10.3126 16.5V13.75C10.3126 13.3742 10.6243 13.0625 11.0001 13.0625C11.376 13.0625 11.6876 13.3742 11.6876 13.75V16.5Z" fill="white"/>
</svg>
