<svg width="19" height="19" viewBox="0 0 19 19" fill="none" xmlns="http://www.w3.org/2000/svg">
<path fill-rule="evenodd" clip-rule="evenodd" d="M9.09809 0.550781C10.3144 0.593394 11.5741 0.593394 12.7904 0.636001C13.8764 0.678609 14.8755 0.849047 15.8311 1.40296C17.0474 2.12732 17.7859 3.19255 18.0465 4.55604C18.1769 5.36562 18.2203 6.2178 18.2637 7.02738C18.3072 8.81696 18.2637 10.6065 18.2637 12.3961C18.2637 13.3335 18.2203 14.2709 17.9162 15.1657C17.3081 16.9127 16.0483 17.9779 14.2239 18.3188C13.3986 18.4892 12.5298 18.4892 11.7044 18.5318C9.87998 18.5744 8.09899 18.5318 6.27454 18.5318C5.31888 18.5318 4.36322 18.4892 3.451 18.191C1.66999 17.5944 0.584015 16.3588 0.236501 14.5692C0.0627472 13.7596 0.0627472 12.9074 0.0193074 12.0979C-0.0241343 10.3083 0.0193074 8.51869 0.0193074 6.72911C0.0193074 5.79171 0.0627472 4.85431 0.36682 3.95951C0.97497 2.21254 2.2347 1.14731 4.05914 0.806439C4.88449 0.636007 5.75327 0.636007 6.57862 0.593394C7.40396 0.550781 8.2293 0.550781 9.09809 0.550781V0.550781ZM16.6139 9.37158C16.6139 9.37158 16.5705 9.37158 16.6139 9.37158C16.5705 8.64722 16.5705 7.96547 16.5705 7.24111C16.5705 6.55938 16.527 5.87762 16.4402 5.19588C16.2664 3.66194 15.3542 2.63933 13.8338 2.34107C13.0519 2.17063 12.1831 2.17063 11.4012 2.17063C9.83742 2.12802 8.31705 2.12802 6.75324 2.17063C5.97134 2.17063 5.18943 2.21323 4.45096 2.34107C3.14779 2.55411 2.23557 3.27847 1.84462 4.55674C1.7143 4.98283 1.67087 5.40892 1.62742 5.83501C1.58398 7.45417 1.58398 9.07331 1.58398 10.6925C1.58398 11.7151 1.62742 12.7803 1.7143 13.8029C1.84462 15.3369 2.80028 16.4021 4.36409 16.6577C5.14599 16.7856 5.97134 16.8282 6.79668 16.8282C8.31705 16.8708 9.83742 16.8282 11.4012 16.8282C12.0963 16.8282 12.7913 16.7856 13.4863 16.7003C14.1379 16.6577 14.746 16.4447 15.2673 16.0186C16.1361 15.3369 16.4402 14.4421 16.4836 13.4194C16.5705 12.1412 16.5705 10.7777 16.6139 9.37158Z" fill="white"/>
<path fill-rule="evenodd" clip-rule="evenodd" d="M13.7891 9.54122C13.7891 12.0978 11.704 14.143 9.09768 14.143C6.49133 14.143 4.40625 12.0978 4.40625 9.49862C4.40625 6.98468 6.53477 4.93945 9.14111 4.93945C11.704 4.93945 13.7891 6.98468 13.7891 9.54122ZM9.09838 12.5238C10.7491 12.5238 12.1391 11.1604 12.1391 9.54122C12.1391 7.92208 10.7491 6.55859 9.09838 6.55859C7.40425 6.55859 6.05763 7.92208 6.05763 9.54122C6.0142 11.1604 7.40425 12.5238 9.09838 12.5238Z" fill="white"/>
<path d="M15.0505 4.72637C15.0505 5.3229 14.5726 5.83421 13.9645 5.83421C13.3563 5.83421 12.8351 5.3229 12.8785 4.72637C12.8785 4.12984 13.3563 3.66113 13.9645 3.66113C14.5726 3.66113 15.0505 4.12983 15.0505 4.72637Z" fill="white"/>
</svg>
