<svg width="40" height="40" viewBox="0 0 40 40" fill="none" xmlns="http://www.w3.org/2000/svg">
<path d="M20.0008 23.6167C16.4508 23.6167 13.5508 20.7333 13.5508 17.1667C13.5508 13.6 16.4508 10.7333 20.0008 10.7333C23.5508 10.7333 26.4508 13.6167 26.4508 17.1833C26.4508 20.75 23.5508 23.6167 20.0008 23.6167ZM20.0008 13.2333C17.8341 13.2333 16.0508 15 16.0508 17.1833C16.0508 19.3667 17.8174 21.1333 20.0008 21.1333C22.1841 21.1333 23.9508 19.3667 23.9508 17.1833C23.9508 15 22.1674 13.2333 20.0008 13.2333Z" fill="white"/>
<path d="M20.0008 37.9333C17.5341 37.9333 15.0508 37 13.1174 35.15C8.20078 30.4167 2.76745 22.8667 4.81745 13.8833C6.66745 5.73334 13.7841 2.08334 20.0008 2.08334C20.0008 2.08334 20.0008 2.08334 20.0175 2.08334C26.2341 2.08334 33.3508 5.73334 35.2008 13.9C37.2341 22.8833 31.8008 30.4167 26.8841 35.15C24.9508 37 22.4674 37.9333 20.0008 37.9333ZM20.0008 4.58334C15.1508 4.58334 8.91745 7.16667 7.26745 14.4333C5.46745 22.2833 10.4008 29.05 14.8674 33.3333C17.7508 36.1167 22.2675 36.1167 25.1508 33.3333C29.6008 29.05 34.5341 22.2833 32.7674 14.4333C31.1008 7.16667 24.8508 4.58334 20.0008 4.58334Z" fill="white"/>
</svg>
