<svg width="22" height="22" viewBox="0 0 22 22" fill="none" xmlns="http://www.w3.org/2000/svg">
<path d="M13.7507 20.8542H8.25065C3.27315 20.8542 1.14648 18.7275 1.14648 13.75V8.25C1.14648 3.2725 3.27315 1.14583 8.25065 1.14583H13.7507C18.7282 1.14583 20.8548 3.2725 20.8548 8.25V13.75C20.8548 18.7275 18.7282 20.8542 13.7507 20.8542ZM8.25065 2.52083C4.02482 2.52083 2.52148 4.02416 2.52148 8.25V13.75C2.52148 17.9758 4.02482 19.4792 8.25065 19.4792H13.7507C17.9765 19.4792 19.4798 17.9758 19.4798 13.75V8.25C19.4798 4.02416 17.9765 2.52083 13.7507 2.52083H8.25065Z" fill="#676D74"/>
<path d="M9.86286 15.0058C9.47786 15.0058 9.12036 14.9142 8.79953 14.7308C8.0662 14.3092 7.64453 13.4475 7.64453 12.3567V9.64334C7.64453 8.56167 8.0662 7.69084 8.79953 7.26917C9.53286 6.8475 10.4862 6.91167 11.4304 7.46167L13.7862 8.81834C14.7212 9.35917 15.262 10.1567 15.262 11C15.262 11.8433 14.7212 12.6408 13.7862 13.1817L11.4304 14.5383C10.8987 14.85 10.3579 15.0058 9.86286 15.0058ZM9.87203 8.36917C9.72536 8.36917 9.59703 8.39667 9.4962 8.46084C9.20286 8.635 9.0287 9.06584 9.0287 9.64334V12.3567C9.0287 12.9342 9.1937 13.365 9.4962 13.5392C9.78953 13.7133 10.2479 13.64 10.752 13.3467L13.1079 11.99C13.612 11.6967 13.8962 11.3392 13.8962 11C13.8962 10.6608 13.612 10.2942 13.1079 10.01L10.752 8.65334C10.422 8.46084 10.1195 8.36917 9.87203 8.36917Z" fill="#676D74"/>
</svg>
