<svg width="20" height="20" viewBox="0 0 20 20" fill="none" xmlns="http://www.w3.org/2000/svg">
<path d="M12.9173 9.375H7.08398C6.74232 9.375 6.45898 9.09167 6.45898 8.75C6.45898 8.40833 6.74232 8.125 7.08398 8.125H12.9173C13.259 8.125 13.5423 8.40833 13.5423 8.75C13.5423 9.09167 13.259 9.375 12.9173 9.375Z" fill="#676D74"/>
<path d="M13.3327 18.6C13.0493 18.6 12.766 18.5166 12.5243 18.3583L8.97434 15.9916H5.83268C2.96602 15.9916 1.04102 14.0666 1.04102 11.2V6.19996C1.04102 3.33329 2.96602 1.40829 5.83268 1.40829H14.166C17.0327 1.40829 18.9577 3.33329 18.9577 6.19996V11.2C18.9577 13.85 17.3077 15.7 14.791 15.9583V17.1416C14.791 17.6833 14.4993 18.1749 14.0243 18.4249C13.8077 18.5416 13.566 18.6 13.3327 18.6ZM5.83268 2.64995C3.68268 2.64995 2.29102 4.04162 2.29102 6.19162V11.1916C2.29102 13.3416 3.68268 14.7333 5.83268 14.7333H9.16602C9.29102 14.7333 9.40769 14.7666 9.51603 14.8416L13.2243 17.3083C13.316 17.3666 13.3994 17.3416 13.441 17.3166C13.4827 17.2916 13.5494 17.2416 13.5494 17.1333V15.3583C13.5494 15.0166 13.8327 14.7333 14.1744 14.7333C16.3244 14.7333 17.716 13.3416 17.716 11.1916V6.19162C17.716 4.04162 16.3244 2.64995 14.1744 2.64995H5.83268Z" fill="#676D74"/>
</svg>
