<svg width="20" height="20" viewBox="0 0 20 20" fill="none" xmlns="http://www.w3.org/2000/svg">
<path d="M10.0172 17.1083C8.07554 17.1083 6.13388 16.8 4.29221 16.1833C3.59221 15.9417 3.05888 15.45 2.82554 14.8083C2.58388 14.1667 2.66721 13.4583 3.05054 12.825L4.00888 11.2333C4.20888 10.9 4.39221 10.2333 4.39221 9.84165V7.43332C4.39221 4.33332 6.91721 1.80832 10.0172 1.80832C13.1172 1.80832 15.6422 4.33332 15.6422 7.43332V9.84165C15.6422 10.225 15.8255 10.9 16.0255 11.2417L16.9755 12.825C17.3339 13.425 17.4005 14.15 17.1589 14.8083C16.9172 15.4667 16.3922 15.9667 15.7339 16.1833C13.9005 16.8 11.9589 17.1083 10.0172 17.1083ZM10.0172 3.05832C7.60888 3.05832 5.64221 5.01665 5.64221 7.43332V9.84165C5.64221 10.45 5.39221 11.35 5.08388 11.875L4.12554 13.4667C3.94221 13.775 3.89221 14.1 4.00054 14.375C4.10054 14.6583 4.35054 14.875 4.69221 14.9917C8.17554 16.1583 11.8672 16.1583 15.3505 14.9917C15.6505 14.8917 15.8839 14.6667 15.9922 14.3667C16.1005 14.0667 16.0755 13.7417 15.9089 13.4667L14.9505 11.875C14.6339 11.3333 14.3922 10.4417 14.3922 9.83332V7.43332C14.3922 5.01665 12.4339 3.05832 10.0172 3.05832Z" fill="#676D74"/>
<path d="M11.5659 3.28334C11.5075 3.28334 11.4492 3.275 11.3909 3.25834C11.1492 3.19167 10.9159 3.14167 10.6909 3.10834C9.98253 3.01667 9.2992 3.06667 8.65753 3.25834C8.4242 3.33334 8.1742 3.25834 8.01587 3.08334C7.85753 2.90834 7.80753 2.65834 7.8992 2.43334C8.24087 1.55834 9.0742 0.983337 10.0242 0.983337C10.9742 0.983337 11.8075 1.55 12.1492 2.43334C12.2325 2.65834 12.1909 2.90834 12.0325 3.08334C11.9075 3.21667 11.7325 3.28334 11.5659 3.28334Z" fill="#676D74"/>
<path d="M10.0176 19.0083C9.19258 19.0083 8.39258 18.675 7.80924 18.0917C7.22591 17.5083 6.89258 16.7083 6.89258 15.8833H8.14258C8.14258 16.375 8.34258 16.8583 8.69258 17.2083C9.04258 17.5583 9.52591 17.7583 10.0176 17.7583C11.0509 17.7583 11.8926 16.9167 11.8926 15.8833H13.1426C13.1426 17.6083 11.7426 19.0083 10.0176 19.0083Z" fill="#676D74"/>
</svg>
