<svg width="24" height="24" viewBox="0 0 24 24" fill="none" xmlns="http://www.w3.org/2000/svg">
<path d="M15 22.75H9C3.57 22.75 1.25 20.43 1.25 15V9C1.25 3.57 3.57 1.25 9 1.25H15C20.43 1.25 22.75 3.57 22.75 9V15C22.75 20.43 20.43 22.75 15 22.75ZM9 2.75C4.39 2.75 2.75 4.39 2.75 9V15C2.75 19.61 4.39 21.25 9 21.25H15C19.61 21.25 21.25 19.61 21.25 15V9C21.25 4.39 19.61 2.75 15 2.75H9Z" fill="#676D74"/>
<path d="M9 10.75C7.48 10.75 6.25 9.52 6.25 8C6.25 6.48 7.48 5.25 9 5.25C10.52 5.25 11.75 6.48 11.75 8C11.75 9.52 10.52 10.75 9 10.75ZM9 6.75C8.31 6.75 7.75 7.31 7.75 8C7.75 8.69 8.31 9.25 9 9.25C9.69 9.25 10.25 8.69 10.25 8C10.25 7.31 9.69 6.75 9 6.75Z" fill="#676D74"/>
<path d="M2.67075 19.7C2.43075 19.7 2.19075 19.58 2.05075 19.37C1.82075 19.03 1.91075 18.56 2.26075 18.33L7.19075 15.02C8.27075 14.29 9.76075 14.38 10.7407 15.21L11.0707 15.5C11.5707 15.93 12.4207 15.93 12.9107 15.5L17.0707 11.93C18.1307 11.02 19.8007 11.02 20.8707 11.93L22.5007 13.33C22.8107 13.6 22.8507 14.07 22.5807 14.39C22.3107 14.7 21.8407 14.74 21.5207 14.47L19.8907 13.07C19.3907 12.64 18.5407 12.64 18.0407 13.07L13.8807 16.64C12.8207 17.55 11.1507 17.55 10.0807 16.64L9.75075 16.35C9.29075 15.96 8.53075 15.92 8.02075 16.27L3.09075 19.58C2.96075 19.66 2.81075 19.7 2.67075 19.7Z" fill="#676D74"/>
</svg>
