<svg width="19" height="16" viewBox="0 0 19 16" fill="none" xmlns="http://www.w3.org/2000/svg">
<path fill-rule="evenodd" clip-rule="evenodd" d="M18.2831 2.23593C17.5948 2.53131 16.9064 2.7423 16.1321 2.82669C16.9064 2.36253 17.5087 1.64518 17.7668 0.801238C17.0355 1.22321 16.2181 1.51858 15.4008 1.68737C14.7125 0.970023 13.723 0.505859 12.6476 0.505859C10.5827 0.505859 8.90492 2.15154 8.90492 4.17699C8.90492 4.47238 8.94794 4.76775 8.99096 5.02094C5.85058 4.85215 3.09737 3.41744 1.24755 1.18101C0.903396 1.72957 0.731321 2.36253 0.731321 3.03768C0.731321 4.30359 1.37661 5.4429 2.40906 6.11805C1.80679 6.11805 1.20453 5.94927 0.688301 5.65388V5.69608C0.688301 7.46836 1.97887 8.98744 3.69963 9.32501C3.39849 9.40941 3.05435 9.45161 2.71019 9.45161C2.45208 9.45161 2.23698 9.40941 2.02189 9.36722C2.4951 10.8441 3.87171 11.899 5.54944 11.9412C4.25888 12.9118 2.66717 13.5025 0.903396 13.5025C0.602265 13.5025 0.301135 13.5025 0 13.4603C1.67774 14.5152 3.61359 15.106 5.76454 15.106C12.6906 15.106 16.4332 9.4938 16.4332 4.64116C16.4332 4.47238 16.4332 4.30359 16.4332 4.17699C17.1646 3.62844 17.8098 2.95328 18.2831 2.23593V2.23593Z" fill="#4C7FB5"/>
</svg>
